<svg version="1.1" xmlns="http://www.w3.org/2000/svg" xmlns:xlink="http://www.w3.org/1999/xlink" width="512px" height="512px" viewBox="0,0,256,256"><g fill="#fcc419" fill-rule="nonzero" stroke="none" stroke-width="1" stroke-linecap="butt" stroke-linejoin="miter" stroke-miterlimit="10" stroke-dasharray="" stroke-dashoffset="0" font-family="none" font-weight="none" font-size="none" text-anchor="none" style="mix-blend-mode: normal"><g transform="translate(0,0.75) scale(0.5,0.5)"><path d="M504,256c0,-137 -111,-248 -248,-248c-137,0 -248,111 -248,248c0,123.78 90.69,226.38 209.25,245v-173.31h-63v-71.69h63v-54.64c0,-62.15 37,-96.48 93.67,-96.48c27.14,0 55.52,4.84 55.52,4.84v61h-31.28c-30.8,0 -40.41,19.12 -40.41,38.73v46.55h68.78l-11,71.69h-57.78v173.31c118.56,-18.62 209.25,-121.22 209.25,-245z"></path></g></g></svg>